<mxfile host="app.diagrams.net" modified="2021-12-26T02:28:39.386Z" agent="5.0 (Windows NT 10.0; Win64; x64) AppleWebKit/537.36 (KHTML, like Gecko) Chrome/96.0.4664.110 Safari/537.36" etag="2H2SvkaAisqKAjmyippY" version="16.0.0" type="github">
  <diagram id="2I-8EeUZH5Zz4JMQ9dY8" name="Page-1">
    <mxGraphModel dx="1030" dy="652" grid="1" gridSize="10" guides="1" tooltips="1" connect="1" arrows="1" fold="1" page="1" pageScale="1" pageWidth="827" pageHeight="1169" math="0" shadow="0">
      <root>
        <mxCell id="0" />
        <mxCell id="1" parent="0" />
        <mxCell id="GIul49wWQuqEVkHe5eQl-7" style="edgeStyle=orthogonalEdgeStyle;rounded=0;orthogonalLoop=1;jettySize=auto;html=1;fontSize=12;exitX=0.5;exitY=1;exitDx=0;exitDy=0;" edge="1" parent="1" source="GIul49wWQuqEVkHe5eQl-1" target="GIul49wWQuqEVkHe5eQl-3">
          <mxGeometry relative="1" as="geometry" />
        </mxCell>
        <mxCell id="GIul49wWQuqEVkHe5eQl-8" style="edgeStyle=orthogonalEdgeStyle;rounded=0;orthogonalLoop=1;jettySize=auto;html=1;fontSize=12;" edge="1" parent="1" source="GIul49wWQuqEVkHe5eQl-1" target="GIul49wWQuqEVkHe5eQl-4">
          <mxGeometry relative="1" as="geometry" />
        </mxCell>
        <mxCell id="GIul49wWQuqEVkHe5eQl-9" style="edgeStyle=orthogonalEdgeStyle;rounded=0;orthogonalLoop=1;jettySize=auto;html=1;fontSize=12;" edge="1" parent="1" source="GIul49wWQuqEVkHe5eQl-1" target="GIul49wWQuqEVkHe5eQl-5">
          <mxGeometry relative="1" as="geometry" />
        </mxCell>
        <mxCell id="GIul49wWQuqEVkHe5eQl-10" style="edgeStyle=orthogonalEdgeStyle;rounded=0;orthogonalLoop=1;jettySize=auto;html=1;fontSize=12;exitX=0.5;exitY=1;exitDx=0;exitDy=0;" edge="1" parent="1" source="GIul49wWQuqEVkHe5eQl-1" target="GIul49wWQuqEVkHe5eQl-6">
          <mxGeometry relative="1" as="geometry" />
        </mxCell>
        <mxCell id="GIul49wWQuqEVkHe5eQl-1" value="河南大学" style="rounded=1;whiteSpace=wrap;html=1;" vertex="1" parent="1">
          <mxGeometry x="340" y="80" width="120" height="60" as="geometry" />
        </mxCell>
        <mxCell id="GIul49wWQuqEVkHe5eQl-12" style="edgeStyle=orthogonalEdgeStyle;rounded=0;orthogonalLoop=1;jettySize=auto;html=1;fontSize=12;" edge="1" parent="1" source="GIul49wWQuqEVkHe5eQl-2">
          <mxGeometry relative="1" as="geometry">
            <mxPoint x="400" y="165" as="targetPoint" />
          </mxGeometry>
        </mxCell>
        <mxCell id="GIul49wWQuqEVkHe5eQl-2" value="河南大学王家耀院士创新团队" style="rounded=1;whiteSpace=wrap;html=1;" vertex="1" parent="1">
          <mxGeometry x="80" y="140" width="160" height="50" as="geometry" />
        </mxCell>
        <mxCell id="GIul49wWQuqEVkHe5eQl-3" value="河南省时空大数据产业技术研究院" style="rounded=1;whiteSpace=wrap;html=1;" vertex="1" parent="1">
          <mxGeometry x="110" y="280" width="120" height="60" as="geometry" />
        </mxCell>
        <mxCell id="GIul49wWQuqEVkHe5eQl-4" value="&lt;p style=&quot;margin-top: 0pt ; margin-bottom: 0pt ; margin-left: 0in ; direction: ltr ; unicode-bidi: embed ; word-break: normal&quot;&gt;&lt;font style=&quot;font-size: 12px&quot;&gt;河南大学全球人文与建筑时空大数据融合广东研究中心&lt;/font&gt;&lt;/p&gt;" style="rounded=1;whiteSpace=wrap;html=1;" vertex="1" parent="1">
          <mxGeometry x="270" y="280" width="120" height="60" as="geometry" />
        </mxCell>
        <mxCell id="GIul49wWQuqEVkHe5eQl-5" value="&lt;p style=&quot;margin-top: 0pt ; margin-bottom: 0pt ; margin-left: 0in ; direction: ltr ; unicode-bidi: embed ; word-break: normal&quot;&gt;&lt;span&gt;&lt;font style=&quot;font-size: 12px&quot;&gt;河南大学全球人文与建筑时空大数据融合北京研究中心&lt;/font&gt;&lt;/span&gt;&lt;/p&gt;" style="rounded=1;whiteSpace=wrap;html=1;" vertex="1" parent="1">
          <mxGeometry x="430" y="280" width="120" height="60" as="geometry" />
        </mxCell>
        <mxCell id="GIul49wWQuqEVkHe5eQl-6" value="&lt;p style=&quot;margin-top: 0pt ; margin-bottom: 0pt ; margin-left: 0in ; direction: ltr ; unicode-bidi: embed ; word-break: normal&quot;&gt;&lt;span&gt;&lt;font style=&quot;font-size: 12px&quot;&gt;河南省时空大数据产业技术研究院&lt;/font&gt;&lt;/span&gt;&lt;/p&gt;" style="rounded=1;whiteSpace=wrap;html=1;" vertex="1" parent="1">
          <mxGeometry x="600" y="280" width="120" height="60" as="geometry" />
        </mxCell>
        <mxCell id="GIul49wWQuqEVkHe5eQl-13" value="" style="rounded=1;whiteSpace=wrap;html=1;fontSize=12;" vertex="1" parent="1">
          <mxGeometry x="110" y="370" width="610" height="60" as="geometry" />
        </mxCell>
      </root>
    </mxGraphModel>
  </diagram>
</mxfile>
